<svg width="55" height="47" viewBox="0 0 55 47" fill="none" xmlns="http://www.w3.org/2000/svg">
<path d="M55 5.56375C52.9405 6.52314 50.7559 7.15289 48.519 7.43204C50.849 5.96361 52.638 3.63831 53.4804 0.867726C51.2655 2.24982 48.8422 3.22359 46.3152 3.74697C44.2567 1.44109 41.3243 0 38.0787 0C31.8469 0 26.7945 5.31254 26.7945 11.8649C26.7945 12.795 26.8944 13.7004 27.0866 14.569C17.7087 14.0741 9.39426 9.35048 3.82873 2.17191C2.85764 3.92431 2.30119 5.96271 2.30119 8.13688C2.30119 12.2534 4.29344 15.885 7.32102 18.0128C5.52911 17.9538 3.77663 17.4449 2.20988 16.5286C2.20924 16.5783 2.20924 16.628 2.20924 16.6779C2.20924 22.4267 6.09877 27.2223 11.2606 28.3124C9.59898 28.7876 7.85604 28.8571 6.16494 28.5157C7.60074 33.2296 11.7681 36.6598 16.7056 36.7558C12.8438 39.938 7.97822 41.835 2.69178 41.835C1.78084 41.835 0.882793 41.7787 0 41.6692C4.99361 45.0357 10.9248 47 17.2971 47C38.0525 47 49.402 28.9201 49.402 13.2409C49.402 12.7263 49.3913 12.2146 49.3694 11.7058C51.5785 10.0266 53.4852 7.9467 55 5.56375Z" fill="#55ACEE"/>
</svg>
